<mxfile host="app.diagrams.net" modified="2021-07-22T02:34:18.662Z" agent="5.0 (Windows)" etag="U3ixfqUKihSyCadXQ8dz" version="14.8.2" type="github">
  <diagram id="P3fmdcQCHubg3AQd1ES1" name="Page-1">
    <mxGraphModel dx="1108" dy="480" grid="1" gridSize="10" guides="1" tooltips="1" connect="1" arrows="1" fold="1" page="1" pageScale="1" pageWidth="4681" pageHeight="3300" math="0" shadow="0">
      <root>
        <mxCell id="0" />
        <mxCell id="1" parent="0" />
        <mxCell id="T7n0-6yJsiRrRjr3KxRL-1" value="1" style="rounded=0;whiteSpace=wrap;html=1;aspect=fixed;" vertex="1" parent="1">
          <mxGeometry x="160" y="80" width="40" height="40" as="geometry" />
        </mxCell>
        <mxCell id="T7n0-6yJsiRrRjr3KxRL-2" value="2" style="rounded=0;whiteSpace=wrap;html=1;aspect=fixed;" vertex="1" parent="1">
          <mxGeometry x="200" y="80" width="40" height="40" as="geometry" />
        </mxCell>
        <mxCell id="T7n0-6yJsiRrRjr3KxRL-3" value="3" style="rounded=0;whiteSpace=wrap;html=1;aspect=fixed;" vertex="1" parent="1">
          <mxGeometry x="240" y="80" width="40" height="40" as="geometry" />
        </mxCell>
        <mxCell id="T7n0-6yJsiRrRjr3KxRL-4" value="4" style="rounded=0;whiteSpace=wrap;html=1;aspect=fixed;" vertex="1" parent="1">
          <mxGeometry x="280" y="80" width="40" height="40" as="geometry" />
        </mxCell>
        <mxCell id="T7n0-6yJsiRrRjr3KxRL-5" value="6" style="rounded=0;whiteSpace=wrap;html=1;aspect=fixed;" vertex="1" parent="1">
          <mxGeometry x="360" y="80" width="40" height="40" as="geometry" />
        </mxCell>
        <mxCell id="T7n0-6yJsiRrRjr3KxRL-6" value="5" style="rounded=0;whiteSpace=wrap;html=1;aspect=fixed;" vertex="1" parent="1">
          <mxGeometry x="320" y="80" width="40" height="40" as="geometry" />
        </mxCell>
        <mxCell id="T7n0-6yJsiRrRjr3KxRL-7" value="1" style="rounded=0;whiteSpace=wrap;html=1;aspect=fixed;" vertex="1" parent="1">
          <mxGeometry x="160" y="240" width="40" height="40" as="geometry" />
        </mxCell>
        <mxCell id="T7n0-6yJsiRrRjr3KxRL-8" value="2" style="rounded=0;whiteSpace=wrap;html=1;aspect=fixed;" vertex="1" parent="1">
          <mxGeometry x="240" y="240" width="40" height="40" as="geometry" />
        </mxCell>
        <mxCell id="T7n0-6yJsiRrRjr3KxRL-9" value="0" style="rounded=0;whiteSpace=wrap;html=1;aspect=fixed;" vertex="1" parent="1">
          <mxGeometry x="120" y="80" width="40" height="40" as="geometry" />
        </mxCell>
        <mxCell id="T7n0-6yJsiRrRjr3KxRL-10" value="3" style="rounded=0;whiteSpace=wrap;html=1;aspect=fixed;" vertex="1" parent="1">
          <mxGeometry x="320" y="240" width="40" height="40" as="geometry" />
        </mxCell>
        <mxCell id="T7n0-6yJsiRrRjr3KxRL-11" value="5" style="rounded=0;whiteSpace=wrap;html=1;aspect=fixed;" vertex="1" parent="1">
          <mxGeometry x="400" y="240" width="40" height="40" as="geometry" />
        </mxCell>
        <mxCell id="T7n0-6yJsiRrRjr3KxRL-12" value="8" style="rounded=0;whiteSpace=wrap;html=1;aspect=fixed;" vertex="1" parent="1">
          <mxGeometry x="480" y="240" width="40" height="40" as="geometry" />
        </mxCell>
      </root>
    </mxGraphModel>
  </diagram>
</mxfile>
